<svg xmlns="http://www.w3.org/2000/svg" xmlns:xlink="http://www.w3.org/1999/xlink" xmlns:lucid="lucid" width="1100.31" height="490"><g transform="translate(0.15229696200083254 -9.99999999999983)" lucid:page-tab-id="0_0"><path d="M50 50h994V30l36 40-36 40V90H50z" stroke="#000" stroke-width="2" fill="#c7e8ac"/><use xlink:href="#a" transform="matrix(1,2.4492935982947064e-16,-2.4492935982947064e-16,1,55.00000000000001,34.99999999999983) translate(478.025 38.4625)"/><path d="M20 200h160v80H20z" stroke="#000" stroke-width="2" fill="#c1e4f7"/><use xlink:href="#b" transform="matrix(1,0,0,1,24.999193548911535,205) translate(41.574999999999996 38.4625)"/><path d="M200 200h160v80H200z" stroke="#000" stroke-width="2" fill="#c1e4f7"/><use xlink:href="#c" transform="matrix(1,0,0,1,204.99919354891153,205) translate(35.55 38.4625)"/><path d="M560 200h160v80H560z" stroke="#000" stroke-width="2" fill="#c1e4f7"/><use xlink:href="#d" transform="matrix(1,0,0,1,564.9991935489115,205) translate(19.124999999999993 38.4625)"/><path d="M920 200h160v80H920z" stroke="#000" stroke-width="2" fill="#c1e4f7"/><use xlink:href="#e" transform="matrix(1,0,0,1,924.9991935489115,205) translate(50.525 38.4625)"/><path d="M1079.92 157.7L51.8 153.27l-.08 17.7L20 135.43l32.03-35.28-.08 17.7 1028.13 4.45z" stroke="#000" stroke-width="2" fill="#c7e8ac"/><use xlink:href="#f" transform="matrix(0.9999906567434999,0.004322779858362556,-0.004322779858362556,0.9999906567434999,25.13224924860259,105.02189810073013) translate(491.03 33.4625)"/><path d="M380 200h160v80H380z" stroke="#000" stroke-width="2" fill="#c1e4f7"/><use xlink:href="#g" transform="matrix(1,0,0,1,384.99919354891153,205) translate(10.150000000000006 38.4625)"/><path d="M740 200h160v80H740z" stroke="#000" stroke-width="2" fill="#c1e4f7"/><use xlink:href="#h" transform="matrix(1,0,0,1,744.9991935489115,205) translate(22.525 38.4625)"/><path d="M460 282v12.1" stroke="#000" stroke-width="2" fill="none"/><path d="M461 282.03h-2V281h2z"/><path d="M460 309.36l-4.64-14.26h9.27z" stroke="#000" stroke-width="2"/><path d="M380 312.6h160V420H380z" stroke="#000" stroke-opacity="0" stroke-width="2" fill="#fff" fill-opacity="0"/><use xlink:href="#i" transform="matrix(1,0,0,1,384.99919354891153,317.6) translate(23.25 20.525)"/><use xlink:href="#j" transform="matrix(1,0,0,1,384.99919354891153,317.6) translate(91.8 20.525)"/><use xlink:href="#k" transform="matrix(1,0,0,1,384.99919354891153,317.6) translate(53.025 42.125)"/><use xlink:href="#l" transform="matrix(1,0,0,1,384.99919354891153,317.6) translate(22.099999999999994 63.725)"/><use xlink:href="#m" transform="matrix(1,0,0,1,384.99919354891153,317.6) translate(101 63.725)"/><use xlink:href="#n" transform="matrix(1,0,0,1,384.99919354891153,317.6) translate(30.599999999999994 85.32500000000002)"/><use xlink:href="#o" transform="matrix(1,0,0,1,384.99919354891153,317.6) translate(97.5 85.32500000000002)"/><path d="M820 282v19.5" stroke="#000" stroke-width="2" fill="none"/><path d="M821 282.03h-2V281h2z"/><path d="M820 316.76l-4.64-14.26h9.27z" stroke="#000" stroke-width="2"/><path d="M740 320h160v160H740z" stroke="#000" stroke-opacity="0" stroke-width="2" fill="#fff" fill-opacity="0"/><use xlink:href="#p" transform="matrix(1,0,0,1,744.9991935489115,325) translate(3.125 14.4)"/><use xlink:href="#q" transform="matrix(1,0,0,1,744.9991935489115,325) translate(88.97500000000001 14.4)"/><use xlink:href="#r" transform="matrix(1,0,0,1,744.9991935489115,325) translate(3.625 36)"/><use xlink:href="#s" transform="matrix(1,0,0,1,744.9991935489115,325) translate(24.575 36)"/><use xlink:href="#t" transform="matrix(1,0,0,1,744.9991935489115,325) translate(87.475 36)"/><use xlink:href="#u" transform="matrix(1,0,0,1,744.9991935489115,325) translate(21.5 57.6)"/><use xlink:href="#v" transform="matrix(1,0,0,1,744.9991935489115,325) translate(41.5 57.6)"/><use xlink:href="#w" transform="matrix(1,0,0,1,744.9991935489115,325) translate(56.5 57.6)"/><use xlink:href="#x" transform="matrix(1,0,0,1,744.9991935489115,325) translate(2.549999999999997 79.20000000000002)"/><use xlink:href="#y" transform="matrix(1,0,0,1,744.9991935489115,325) translate(53.45 79.20000000000002)"/><use xlink:href="#z" transform="matrix(1,0,0,1,744.9991935489115,325) translate(87.45 79.20000000000002)"/><use xlink:href="#A" transform="matrix(1,0,0,1,744.9991935489115,325) translate(127.45 79.20000000000002)"/><use xlink:href="#B" transform="matrix(1,0,0,1,744.9991935489115,325) translate(1.5999999999999943 100.80000000000001)"/><use xlink:href="#C" transform="matrix(1,0,0,1,744.9991935489115,325) translate(45.599999999999994 100.80000000000001)"/><use xlink:href="#D" transform="matrix(1,0,0,1,744.9991935489115,325) translate(69.6 100.80000000000001)"/><use xlink:href="#E" transform="matrix(1,0,0,1,744.9991935489115,325) translate(121.5 100.80000000000001)"/><use xlink:href="#F" transform="matrix(1,0,0,1,744.9991935489115,325) translate(24.549999999999997 122.4)"/><use xlink:href="#G" transform="matrix(1,0,0,1,744.9991935489115,325) translate(89.5 122.4)"/><use xlink:href="#H" transform="matrix(1,0,0,1,744.9991935489115,325) translate(115.45 122.4)"/><use xlink:href="#I" transform="matrix(1,0,0,1,744.9991935489115,325) translate(38.099999999999994 144)"/><path d="M640 282v19.5" stroke="#000" stroke-width="2" fill="none"/><path d="M641 282.03h-2V281h2z"/><path d="M640 316.76l-4.64-14.26h9.27z" stroke="#000" stroke-width="2"/><path d="M560 320h160v60H560z" stroke="#000" stroke-opacity="0" stroke-width="2" fill="#fff" fill-opacity="0"/><g><use xlink:href="#J" transform="matrix(1,0,0,1,564.9991935489115,325) translate(7.025000000000006 17.525)"/><use xlink:href="#K" transform="matrix(1,0,0,1,564.9991935489115,325) translate(55.97500000000001 17.525)"/><use xlink:href="#L" transform="matrix(1,0,0,1,564.9991935489115,325) translate(127.97500000000001 17.525)"/><use xlink:href="#M" transform="matrix(1,0,0,1,564.9991935489115,325) translate(54.525 39.125)"/></g><path d="M1000 282v19.5" stroke="#000" stroke-width="2" fill="none"/><path d="M1001 282.03h-2V281h2z"/><path d="M1000 316.76l-4.64-14.26h9.27z" stroke="#000" stroke-width="2"/><path d="M920 320h160v120H920z" stroke="#000" stroke-opacity="0" stroke-width="2" fill="#fff" fill-opacity="0"/><g><use xlink:href="#N" transform="matrix(1,0,0,1,924.9991935489115,325) translate(22.074999999999996 17.8375)"/><use xlink:href="#O" transform="matrix(1,0,0,1,924.9991935489115,325) translate(64.025 17.8375)"/><use xlink:href="#P" transform="matrix(1,0,0,1,924.9991935489115,325) translate(20.125 39.4375)"/><use xlink:href="#Q" transform="matrix(1,0,0,1,924.9991935489115,325) translate(72.025 39.4375)"/><use xlink:href="#R" transform="matrix(1,0,0,1,924.9991935489115,325) translate(120.925 39.4375)"/><use xlink:href="#S" transform="matrix(1,0,0,1,924.9991935489115,325) translate(56.075 61.0375)"/><use xlink:href="#P" transform="matrix(1,0,0,1,924.9991935489115,325) translate(10.625 82.63750000000002)"/><use xlink:href="#T" transform="matrix(1,0,0,1,924.9991935489115,325) translate(62.525 82.63750000000002)"/><use xlink:href="#U" transform="matrix(1,0,0,1,924.9991935489115,325) translate(90.425 82.63750000000002)"/><use xlink:href="#V" transform="matrix(1,0,0,1,924.9991935489115,325) translate(119.375 82.63750000000002)"/><use xlink:href="#W" transform="matrix(1,0,0,1,924.9991935489115,325) translate(56.5 104.23750000000001)"/></g><path d="M200 320h160v60H200z" stroke="#000" stroke-opacity="0" stroke-width="2" fill="#fff" fill-opacity="0"/><g><use xlink:href="#X" transform="matrix(1,0,0,1,204.99919354891153,325) translate(25.549999999999997 30.025)"/><use xlink:href="#Y" transform="matrix(1,0,0,1,204.99919354891153,325) translate(74.5 30.025)"/></g><path d="M280 282v19.5" stroke="#000" stroke-width="2" fill="none"/><path d="M281 282.03h-2V281h2z"/><path d="M280 316.76l-4.64-14.26h9.27z" stroke="#000" stroke-width="2"/><path d="M100 282v19.5" stroke="#000" stroke-width="2" fill="none"/><path d="M101 282.03h-2V281h2z"/><path d="M100 316.76l-4.64-14.26h9.27z" stroke="#000" stroke-width="2"/><path d="M20 320h160v60H20z" stroke="#000" stroke-opacity="0" stroke-width="2" fill="#fff" fill-opacity="0"/><g><use xlink:href="#Z" transform="matrix(1,0,0,1,24.996432208193482,325) translate(28.549999999999997 17.525)"/><use xlink:href="#aa" transform="matrix(1,0,0,1,24.996432208193482,325) translate(73.5 17.525)"/><use xlink:href="#ab" transform="matrix(1,0,0,1,24.996432208193482,325) translate(117.45 17.525)"/><use xlink:href="#ac" transform="matrix(1,0,0,1,24.996432208193482,325) translate(29.15 39.125)"/></g><defs><path d="M114-163C36-179 61-72 57 0H25l-1-190h30c1 12-1 29 2 39 6-27 23-49 58-41v29" id="ad"/><path d="M100-194c63 0 86 42 84 106H49c0 40 14 67 53 68 26 1 43-12 49-29l28 8c-11 28-37 45-77 45C44 4 14-33 15-96c1-61 26-98 85-98zm52 81c6-60-76-77-97-28-3 7-6 17-6 28h103" id="ae"/><path d="M145-31C134-9 116 4 85 4 32 4 16-35 15-94c0-59 17-99 70-100 32-1 48 14 60 33 0-11-1-24 2-32h30l-1 268h-32zM93-21c41 0 51-33 51-76s-8-73-50-73c-40 0-46 35-46 75s5 74 45 74" id="af"/><path d="M84 4C-5 8 30-112 23-190h32v120c0 31 7 50 39 49 72-2 45-101 50-169h31l1 190h-30c-1-10 1-25-2-33-11 22-28 36-60 37" id="ag"/><path d="M135-143c-3-34-86-38-87 0 15 53 115 12 119 90S17 21 10-45l28-5c4 36 97 45 98 0-10-56-113-15-118-90-4-57 82-63 122-42 12 7 21 19 24 35" id="ah"/><path d="M59-47c-2 24 18 29 38 22v24C64 9 27 4 27-40v-127H5v-23h24l9-43h21v43h35v23H59v120" id="ai"/><g id="a"><use transform="matrix(0.05,0,0,0.05,0,0)" xlink:href="#ad"/><use transform="matrix(0.05,0,0,0.05,5.95,0)" xlink:href="#ae"/><use transform="matrix(0.05,0,0,0.05,15.949999999999998,0)" xlink:href="#af"/><use transform="matrix(0.05,0,0,0.05,25.950000000000003,0)" xlink:href="#ag"/><use transform="matrix(0.05,0,0,0.05,35.95,0)" xlink:href="#ae"/><use transform="matrix(0.05,0,0,0.05,45.95,0)" xlink:href="#ah"/><use transform="matrix(0.05,0,0,0.05,54.95,0)" xlink:href="#ai"/></g><path d="M108 0H70L1-190h34L89-25l56-165h34" id="aj"/><path d="M33 0v-38h34V0H33" id="ak"/><path d="M24-231v-30h32v30H24zM-9 49c24 4 33-6 33-30v-209h32V24c2 40-23 58-65 49V49" id="al"/><g id="b"><use transform="matrix(0.05,0,0,0.05,0,0)" xlink:href="#ah"/><use transform="matrix(0.05,0,0,0.05,9,0)" xlink:href="#ae"/><use transform="matrix(0.05,0,0,0.05,19,0)" xlink:href="#ad"/><use transform="matrix(0.05,0,0,0.05,24.95,0)" xlink:href="#aj"/><use transform="matrix(0.05,0,0,0.05,33.95,0)" xlink:href="#ae"/><use transform="matrix(0.05,0,0,0.05,43.95,0)" xlink:href="#ad"/><use transform="matrix(0.05,0,0,0.05,48.900000000000006,0)" xlink:href="#ak"/><use transform="matrix(0.05,0,0,0.05,53.900000000000006,0)" xlink:href="#al"/><use transform="matrix(0.05,0,0,0.05,57.85,0)" xlink:href="#ah"/></g><path d="M96-169c-40 0-48 33-48 73s9 75 48 75c24 0 41-14 43-38l32 2c-6 37-31 61-74 61-59 0-76-41-82-99-10-93 101-131 147-64 4 7 5 14 7 22l-32 3c-4-21-16-35-41-35" id="am"/><path d="M0 4l72-265h28L28 4H0" id="an"/><path d="M100-194c62-1 85 37 85 99 1 63-27 99-86 99S16-35 15-95c0-66 28-99 85-99zM99-20c44 1 53-31 53-75 0-43-8-75-51-75s-53 32-53 75 10 74 51 75" id="ao"/><g id="c"><use transform="matrix(0.05,0,0,0.05,0,0)" xlink:href="#ah"/><use transform="matrix(0.05,0,0,0.05,9,0)" xlink:href="#ad"/><use transform="matrix(0.05,0,0,0.05,14.949999999999998,0)" xlink:href="#am"/><use transform="matrix(0.05,0,0,0.05,23.95,0)" xlink:href="#an"/><use transform="matrix(0.05,0,0,0.05,28.950000000000003,0)" xlink:href="#ad"/><use transform="matrix(0.05,0,0,0.05,34.9,0)" xlink:href="#ao"/><use transform="matrix(0.05,0,0,0.05,44.9,0)" xlink:href="#ag"/><use transform="matrix(0.05,0,0,0.05,54.900000000000006,0)" xlink:href="#ai"/><use transform="matrix(0.05,0,0,0.05,59.900000000000006,0)" xlink:href="#ae"/><use transform="matrix(0.05,0,0,0.05,69.9,0)" xlink:href="#ah"/></g><path d="M117-194c89-4 53 116 60 194h-32v-121c0-31-8-49-39-48C34-167 62-67 57 0H25l-1-190h30c1 10-1 24 2 32 11-22 29-35 61-36" id="ap"/><path d="M24 0v-261h32V0H24" id="aq"/><g id="d"><use transform="matrix(0.05,0,0,0.05,0,0)" xlink:href="#ah"/><use transform="matrix(0.05,0,0,0.05,9,0)" xlink:href="#ad"/><use transform="matrix(0.05,0,0,0.05,14.949999999999998,0)" xlink:href="#am"/><use transform="matrix(0.05,0,0,0.05,23.95,0)" xlink:href="#an"/><use transform="matrix(0.05,0,0,0.05,28.950000000000003,0)" xlink:href="#am"/><use transform="matrix(0.05,0,0,0.05,37.95,0)" xlink:href="#ao"/><use transform="matrix(0.05,0,0,0.05,47.95,0)" xlink:href="#ap"/><use transform="matrix(0.05,0,0,0.05,57.95,0)" xlink:href="#ai"/><use transform="matrix(0.05,0,0,0.05,62.95,0)" xlink:href="#ad"/><use transform="matrix(0.05,0,0,0.05,68.9,0)" xlink:href="#ao"/><use transform="matrix(0.05,0,0,0.05,78.9,0)" xlink:href="#aq"/><use transform="matrix(0.05,0,0,0.05,82.85000000000001,0)" xlink:href="#aq"/><use transform="matrix(0.05,0,0,0.05,86.80000000000001,0)" xlink:href="#ae"/><use transform="matrix(0.05,0,0,0.05,96.80000000000001,0)" xlink:href="#ad"/><use transform="matrix(0.05,0,0,0.05,102.75,0)" xlink:href="#ah"/></g><path d="M85-194c31 0 48 13 60 33l-1-100h32l1 261h-30c-2-10 0-23-3-31C134-8 116 4 85 4 32 4 16-35 15-94c0-66 23-100 70-100zm9 24c-40 0-46 34-46 75 0 40 6 74 45 74 42 0 51-32 51-76 0-42-9-74-50-73" id="ar"/><path d="M115-194c53 0 69 39 70 98 0 66-23 100-70 100C84 3 66-7 56-30L54 0H23l1-261h32v101c10-23 28-34 59-34zm-8 174c40 0 45-34 45-75 0-40-5-75-45-74-42 0-51 32-51 76 0 43 10 73 51 73" id="as"/><g id="e"><use transform="matrix(0.05,0,0,0.05,0,0)" xlink:href="#ah"/><use transform="matrix(0.05,0,0,0.05,9,0)" xlink:href="#ad"/><use transform="matrix(0.05,0,0,0.05,14.949999999999998,0)" xlink:href="#am"/><use transform="matrix(0.05,0,0,0.05,23.95,0)" xlink:href="#an"/><use transform="matrix(0.05,0,0,0.05,28.950000000000003,0)" xlink:href="#ar"/><use transform="matrix(0.05,0,0,0.05,38.95,0)" xlink:href="#as"/></g><path d="M115-194c55 1 70 41 70 98S169 2 115 4C84 4 66-9 55-30l1 105H24l-1-265h31l2 30c10-21 28-34 59-34zm-8 174c40 0 45-34 45-75s-6-73-45-74c-42 0-51 32-51 76 0 43 10 73 51 73" id="at"/><g id="f"><use transform="matrix(0.05,0,0,0.05,0,0)" xlink:href="#ad"/><use transform="matrix(0.05,0,0,0.05,5.95,0)" xlink:href="#ae"/><use transform="matrix(0.05,0,0,0.05,15.949999999999998,0)" xlink:href="#ah"/><use transform="matrix(0.05,0,0,0.05,24.95,0)" xlink:href="#at"/><use transform="matrix(0.05,0,0,0.05,34.95,0)" xlink:href="#ao"/><use transform="matrix(0.05,0,0,0.05,44.95,0)" xlink:href="#ap"/><use transform="matrix(0.05,0,0,0.05,54.95,0)" xlink:href="#ah"/><use transform="matrix(0.05,0,0,0.05,63.95,0)" xlink:href="#ae"/></g><path d="M210-169c-67 3-38 105-44 169h-31v-121c0-29-5-50-35-48C34-165 62-65 56 0H25l-1-190h30c1 10-1 24 2 32 10-44 99-50 107 0 11-21 27-35 58-36 85-2 47 119 55 194h-31v-121c0-29-5-49-35-48" id="au"/><path d="M24-231v-30h32v30H24zM24 0v-190h32V0H24" id="av"/><path d="M206 0h-36l-40-164L89 0H53L-1-190h32L70-26l43-164h34l41 164 42-164h31" id="aw"/><path d="M141-36C126-15 110 5 73 4 37 3 15-17 15-53c-1-64 63-63 125-63 3-35-9-54-41-54-24 1-41 7-42 31l-33-3c5-37 33-52 76-52 45 0 72 20 72 64v82c-1 20 7 32 28 27v20c-31 9-61-2-59-35zM48-53c0 20 12 33 32 33 41-3 63-29 60-74-43 2-92-5-92 41" id="ax"/><g id="g"><use transform="matrix(0.05,0,0,0.05,0,0)" xlink:href="#ah"/><use transform="matrix(0.05,0,0,0.05,9,0)" xlink:href="#ad"/><use transform="matrix(0.05,0,0,0.05,14.949999999999998,0)" xlink:href="#am"/><use transform="matrix(0.05,0,0,0.05,23.95,0)" xlink:href="#an"/><use transform="matrix(0.05,0,0,0.05,28.950000000000003,0)" xlink:href="#au"/><use transform="matrix(0.05,0,0,0.05,43.9,0)" xlink:href="#av"/><use transform="matrix(0.05,0,0,0.05,47.85,0)" xlink:href="#ar"/><use transform="matrix(0.05,0,0,0.05,57.85,0)" xlink:href="#ar"/><use transform="matrix(0.05,0,0,0.05,67.85,0)" xlink:href="#aq"/><use transform="matrix(0.05,0,0,0.05,71.8,0)" xlink:href="#ae"/><use transform="matrix(0.05,0,0,0.05,81.8,0)" xlink:href="#aw"/><use transform="matrix(0.05,0,0,0.05,94.75,0)" xlink:href="#ax"/><use transform="matrix(0.05,0,0,0.05,104.75,0)" xlink:href="#ad"/><use transform="matrix(0.05,0,0,0.05,110.7,0)" xlink:href="#ae"/><use transform="matrix(0.05,0,0,0.05,120.7,0)" xlink:href="#ah"/></g><g id="h"><use transform="matrix(0.05,0,0,0.05,0,0)" xlink:href="#ah"/><use transform="matrix(0.05,0,0,0.05,9,0)" xlink:href="#ad"/><use transform="matrix(0.05,0,0,0.05,14.949999999999998,0)" xlink:href="#am"/><use transform="matrix(0.05,0,0,0.05,23.95,0)" xlink:href="#an"/><use transform="matrix(0.05,0,0,0.05,28.950000000000003,0)" xlink:href="#ag"/><use transform="matrix(0.05,0,0,0.05,38.95,0)" xlink:href="#ah"/><use transform="matrix(0.05,0,0,0.05,47.95,0)" xlink:href="#ae"/><use transform="matrix(0.05,0,0,0.05,57.95,0)" xlink:href="#am"/><use transform="matrix(0.05,0,0,0.05,66.95,0)" xlink:href="#ax"/><use transform="matrix(0.05,0,0,0.05,76.95,0)" xlink:href="#ah"/><use transform="matrix(0.05,0,0,0.05,85.95,0)" xlink:href="#ae"/><use transform="matrix(0.05,0,0,0.05,95.95,0)" xlink:href="#ah"/></g><path d="M137 0h-34L2-248h35l83 218 83-218h36" id="ay"/><g id="i"><use transform="matrix(0.05,0,0,0.05,0,0)" xlink:href="#ay"/><use transform="matrix(0.05,0,0,0.05,10.65,0)" xlink:href="#ax"/><use transform="matrix(0.05,0,0,0.05,20.65,0)" xlink:href="#aq"/><use transform="matrix(0.05,0,0,0.05,24.599999999999998,0)" xlink:href="#av"/><use transform="matrix(0.05,0,0,0.05,28.549999999999997,0)" xlink:href="#ar"/><use transform="matrix(0.05,0,0,0.05,38.55,0)" xlink:href="#ax"/><use transform="matrix(0.05,0,0,0.05,48.55,0)" xlink:href="#ai"/><use transform="matrix(0.05,0,0,0.05,53.54999999999999,0)" xlink:href="#ae"/></g><g id="j"><use transform="matrix(0.05,0,0,0.05,0,0)" xlink:href="#ag"/><use transform="matrix(0.05,0,0,0.05,10,0)" xlink:href="#ah"/><use transform="matrix(0.05,0,0,0.05,19,0)" xlink:href="#ae"/><use transform="matrix(0.05,0,0,0.05,29,0)" xlink:href="#ad"/></g><path d="M68-38c1 34 0 65-14 84H32c9-13 17-26 17-46H33v-38h35" id="az"/><g id="k"><use transform="matrix(0.05,0,0,0.05,0,0)" xlink:href="#av"/><use transform="matrix(0.05,0,0,0.05,3.95,0)" xlink:href="#ap"/><use transform="matrix(0.05,0,0,0.05,13.949999999999998,0)" xlink:href="#at"/><use transform="matrix(0.05,0,0,0.05,23.95,0)" xlink:href="#ag"/><use transform="matrix(0.05,0,0,0.05,33.95,0)" xlink:href="#ai"/><use transform="matrix(0.05,0,0,0.05,38.95,0)" xlink:href="#az"/></g><path d="M106-169C34-169 62-67 57 0H25v-261h32l-1 103c12-21 28-36 61-36 89 0 53 116 60 194h-32v-121c2-32-8-49-39-48" id="aA"/><path d="M9 0v-24l116-142H16v-24h144v24L44-24h123V0H9" id="aB"/><g id="l"><use transform="matrix(0.05,0,0,0.05,0,0)" xlink:href="#ax"/><use transform="matrix(0.05,0,0,0.05,10,0)" xlink:href="#ag"/><use transform="matrix(0.05,0,0,0.05,20,0)" xlink:href="#ai"/><use transform="matrix(0.05,0,0,0.05,25,0)" xlink:href="#aA"/><use transform="matrix(0.05,0,0,0.05,35,0)" xlink:href="#ao"/><use transform="matrix(0.05,0,0,0.05,45,0)" xlink:href="#ad"/><use transform="matrix(0.05,0,0,0.05,50.95,0)" xlink:href="#av"/><use transform="matrix(0.05,0,0,0.05,54.900000000000006,0)" xlink:href="#aB"/><use transform="matrix(0.05,0,0,0.05,63.900000000000006,0)" xlink:href="#ae"/></g><g id="m"><use transform="matrix(0.05,0,0,0.05,0,0)" xlink:href="#al"/><use transform="matrix(0.05,0,0,0.05,3.95,0)" xlink:href="#aw"/><use transform="matrix(0.05,0,0,0.05,16.900000000000002,0)" xlink:href="#ai"/><use transform="matrix(0.05,0,0,0.05,21.900000000000002,0)" xlink:href="#az"/></g><g id="n"><use transform="matrix(0.05,0,0,0.05,0,0)" xlink:href="#aj"/><use transform="matrix(0.05,0,0,0.05,9,0)" xlink:href="#ax"/><use transform="matrix(0.05,0,0,0.05,19,0)" xlink:href="#aq"/><use transform="matrix(0.05,0,0,0.05,22.95,0)" xlink:href="#av"/><use transform="matrix(0.05,0,0,0.05,26.899999999999995,0)" xlink:href="#ar"/><use transform="matrix(0.05,0,0,0.05,36.9,0)" xlink:href="#ax"/><use transform="matrix(0.05,0,0,0.05,46.9,0)" xlink:href="#ai"/><use transform="matrix(0.05,0,0,0.05,51.900000000000006,0)" xlink:href="#ae"/></g><g id="o"><use transform="matrix(0.05,0,0,0.05,0,0)" xlink:href="#al"/><use transform="matrix(0.05,0,0,0.05,3.95,0)" xlink:href="#aw"/><use transform="matrix(0.05,0,0,0.05,16.900000000000002,0)" xlink:href="#ai"/></g><path d="M212-179c-10-28-35-45-73-45-59 0-87 40-87 99 0 60 29 101 89 101 43 0 62-24 78-52l27 14C228-24 195 4 139 4 59 4 22-46 18-125c-6-104 99-153 187-111 19 9 31 26 39 46" id="aC"/><g id="p"><use transform="matrix(0.05,0,0,0.05,0,0)" xlink:href="#aC"/><use transform="matrix(0.05,0,0,0.05,12.950000000000001,0)" xlink:href="#ao"/><use transform="matrix(0.05,0,0,0.05,22.950000000000003,0)" xlink:href="#au"/><use transform="matrix(0.05,0,0,0.05,37.900000000000006,0)" xlink:href="#as"/><use transform="matrix(0.05,0,0,0.05,47.900000000000006,0)" xlink:href="#av"/><use transform="matrix(0.05,0,0,0.05,51.85,0)" xlink:href="#ap"/><use transform="matrix(0.05,0,0,0.05,61.85,0)" xlink:href="#ae"/><use transform="matrix(0.05,0,0,0.05,71.85000000000001,0)" xlink:href="#ah"/></g><path d="M240 0l2-218c-23 76-54 145-80 218h-23L58-218 59 0H30v-248h44l77 211c21-75 51-140 76-211h43V0h-30" id="aD"/><g id="q"><use transform="matrix(0.05,0,0,0.05,0,0)" xlink:href="#aD"/><use transform="matrix(0.05,0,0,0.05,14.950000000000001,0)" xlink:href="#ao"/><use transform="matrix(0.05,0,0,0.05,24.950000000000003,0)" xlink:href="#ar"/><use transform="matrix(0.05,0,0,0.05,34.95,0)" xlink:href="#ae"/><use transform="matrix(0.05,0,0,0.05,44.95,0)" xlink:href="#aq"/><use transform="matrix(0.05,0,0,0.05,48.900000000000006,0)" xlink:href="#ah"/></g><g id="r"><use transform="matrix(0.05,0,0,0.05,0,0)" xlink:href="#ao"/><use transform="matrix(0.05,0,0,0.05,10,0)" xlink:href="#ad"/></g><g id="s"><use transform="matrix(0.05,0,0,0.05,0,0)" xlink:href="#aj"/><use transform="matrix(0.05,0,0,0.05,9,0)" xlink:href="#ax"/><use transform="matrix(0.05,0,0,0.05,19,0)" xlink:href="#ad"/><use transform="matrix(0.05,0,0,0.05,24.95,0)" xlink:href="#av"/><use transform="matrix(0.05,0,0,0.05,28.899999999999995,0)" xlink:href="#ao"/><use transform="matrix(0.05,0,0,0.05,38.9,0)" xlink:href="#ag"/><use transform="matrix(0.05,0,0,0.05,48.9,0)" xlink:href="#ah"/></g><g id="t"><use transform="matrix(0.05,0,0,0.05,0,0)" xlink:href="#af"/><use transform="matrix(0.05,0,0,0.05,10,0)" xlink:href="#ag"/><use transform="matrix(0.05,0,0,0.05,20,0)" xlink:href="#ae"/><use transform="matrix(0.05,0,0,0.05,30,0)" xlink:href="#ad"/><use transform="matrix(0.05,0,0,0.05,35.95,0)" xlink:href="#av"/><use transform="matrix(0.05,0,0,0.05,39.900000000000006,0)" xlink:href="#ae"/><use transform="matrix(0.05,0,0,0.05,49.900000000000006,0)" xlink:href="#ah"/></g><g id="u"><use transform="matrix(0.05,0,0,0.05,0,0)" xlink:href="#ai"/><use transform="matrix(0.05,0,0,0.05,5,0)" xlink:href="#ao"/></g><use transform="matrix(0.05,0,0,0.05,0,0)" xlink:href="#ax" id="v"/><g id="w"><use transform="matrix(0.05,0,0,0.05,0,0)" xlink:href="#ag"/><use transform="matrix(0.05,0,0,0.05,10,0)" xlink:href="#ah"/><use transform="matrix(0.05,0,0,0.05,19,0)" xlink:href="#ae"/><use transform="matrix(0.05,0,0,0.05,29,0)" xlink:href="#am"/><use transform="matrix(0.05,0,0,0.05,38,0)" xlink:href="#ax"/><use transform="matrix(0.05,0,0,0.05,48,0)" xlink:href="#ah"/><use transform="matrix(0.05,0,0,0.05,57,0)" xlink:href="#ae"/><use transform="matrix(0.05,0,0,0.05,67,0)" xlink:href="#az"/></g><g id="x"><use transform="matrix(0.05,0,0,0.05,0,0)" xlink:href="#aw"/><use transform="matrix(0.05,0,0,0.05,12.950000000000001,0)" xlink:href="#aA"/><use transform="matrix(0.05,0,0,0.05,22.950000000000003,0)" xlink:href="#av"/><use transform="matrix(0.05,0,0,0.05,26.900000000000002,0)" xlink:href="#am"/><use transform="matrix(0.05,0,0,0.05,35.900000000000006,0)" xlink:href="#aA"/></g><g id="y"><use transform="matrix(0.05,0,0,0.05,0,0)" xlink:href="#am"/><use transform="matrix(0.05,0,0,0.05,9,0)" xlink:href="#ax"/><use transform="matrix(0.05,0,0,0.05,19,0)" xlink:href="#ap"/></g><g id="z"><use transform="matrix(0.05,0,0,0.05,0,0)" xlink:href="#ai"/><use transform="matrix(0.05,0,0,0.05,5,0)" xlink:href="#aA"/><use transform="matrix(0.05,0,0,0.05,15,0)" xlink:href="#ae"/><use transform="matrix(0.05,0,0,0.05,25,0)" xlink:href="#ap"/></g><g id="A"><use transform="matrix(0.05,0,0,0.05,0,0)" xlink:href="#as"/><use transform="matrix(0.05,0,0,0.05,10,0)" xlink:href="#ae"/></g><g id="B"><use transform="matrix(0.05,0,0,0.05,0,0)" xlink:href="#ag"/><use transform="matrix(0.05,0,0,0.05,10,0)" xlink:href="#ah"/><use transform="matrix(0.05,0,0,0.05,19,0)" xlink:href="#ae"/><use transform="matrix(0.05,0,0,0.05,29,0)" xlink:href="#ar"/></g><g id="C"><use transform="matrix(0.05,0,0,0.05,0,0)" xlink:href="#ax"/><use transform="matrix(0.05,0,0,0.05,10,0)" xlink:href="#ah"/></g><path d="M177-190C167-65 218 103 67 71c-23-6-38-20-44-43l32-5c15 47 100 32 89-28v-30C133-14 115 1 83 1 29 1 15-40 15-95c0-56 16-97 71-98 29-1 48 16 59 35 1-10 0-23 2-32h30zM94-22c36 0 50-32 50-73 0-42-14-75-50-75-39 0-46 34-46 75s6 73 46 73" id="aE"/><g id="D"><use transform="matrix(0.05,0,0,0.05,0,0)" xlink:href="#ah"/><use transform="matrix(0.05,0,0,0.05,9,0)" xlink:href="#av"/><use transform="matrix(0.05,0,0,0.05,12.949999999999998,0)" xlink:href="#ap"/><use transform="matrix(0.05,0,0,0.05,22.95,0)" xlink:href="#aE"/><use transform="matrix(0.05,0,0,0.05,32.95,0)" xlink:href="#aq"/><use transform="matrix(0.05,0,0,0.05,36.900000000000006,0)" xlink:href="#ae"/></g><g id="E"><use transform="matrix(0.05,0,0,0.05,0,0)" xlink:href="#am"/><use transform="matrix(0.05,0,0,0.05,9,0)" xlink:href="#ax"/><use transform="matrix(0.05,0,0,0.05,19,0)" xlink:href="#aq"/><use transform="matrix(0.05,0,0,0.05,22.95,0)" xlink:href="#aq"/></g><g id="F"><use transform="matrix(0.05,0,0,0.05,0,0)" xlink:href="#au"/><use transform="matrix(0.05,0,0,0.05,14.950000000000001,0)" xlink:href="#ae"/><use transform="matrix(0.05,0,0,0.05,24.950000000000003,0)" xlink:href="#ai"/><use transform="matrix(0.05,0,0,0.05,29.950000000000003,0)" xlink:href="#aA"/><use transform="matrix(0.05,0,0,0.05,39.95,0)" xlink:href="#ao"/><use transform="matrix(0.05,0,0,0.05,49.95,0)" xlink:href="#ar"/></g><path d="M101-234c-31-9-42 10-38 44h38v23H63V0H32v-167H5v-23h27c-7-52 17-82 69-68v24" id="aF"/><g id="G"><use transform="matrix(0.05,0,0,0.05,0,0)" xlink:href="#aF"/><use transform="matrix(0.05,0,0,0.05,5,0)" xlink:href="#ao"/><use transform="matrix(0.05,0,0,0.05,15,0)" xlink:href="#ad"/></g><use transform="matrix(0.05,0,0,0.05,0,0)" xlink:href="#ax" id="H"/><g id="I"><use transform="matrix(0.05,0,0,0.05,0,0)" xlink:href="#am"/><use transform="matrix(0.05,0,0,0.05,9,0)" xlink:href="#ao"/><use transform="matrix(0.05,0,0,0.05,19,0)" xlink:href="#ap"/><use transform="matrix(0.05,0,0,0.05,29,0)" xlink:href="#ai"/><use transform="matrix(0.05,0,0,0.05,34,0)" xlink:href="#ad"/><use transform="matrix(0.05,0,0,0.05,39.95,0)" xlink:href="#ao"/><use transform="matrix(0.05,0,0,0.05,49.95,0)" xlink:href="#aq"/><use transform="matrix(0.05,0,0,0.05,53.900000000000006,0)" xlink:href="#aq"/><use transform="matrix(0.05,0,0,0.05,57.85,0)" xlink:href="#ae"/><use transform="matrix(0.05,0,0,0.05,67.85000000000001,0)" xlink:href="#ad"/></g><g id="J"><use transform="matrix(0.05,0,0,0.05,0,0)" xlink:href="#aD"/><use transform="matrix(0.05,0,0,0.05,14.950000000000001,0)" xlink:href="#ax"/><use transform="matrix(0.05,0,0,0.05,24.950000000000003,0)" xlink:href="#at"/><use transform="matrix(0.05,0,0,0.05,34.95,0)" xlink:href="#ah"/></g><g id="K"><use transform="matrix(0.05,0,0,0.05,0,0)" xlink:href="#ag"/><use transform="matrix(0.05,0,0,0.05,10,0)" xlink:href="#ah"/><use transform="matrix(0.05,0,0,0.05,19,0)" xlink:href="#ae"/><use transform="matrix(0.05,0,0,0.05,29,0)" xlink:href="#am"/><use transform="matrix(0.05,0,0,0.05,38,0)" xlink:href="#ax"/><use transform="matrix(0.05,0,0,0.05,48,0)" xlink:href="#ah"/><use transform="matrix(0.05,0,0,0.05,57,0)" xlink:href="#ae"/></g><g id="L"><use transform="matrix(0.05,0,0,0.05,0,0)" xlink:href="#ai"/><use transform="matrix(0.05,0,0,0.05,5,0)" xlink:href="#ao"/></g><g id="M"><use transform="matrix(0.05,0,0,0.05,0,0)" xlink:href="#ad"/><use transform="matrix(0.05,0,0,0.05,5.95,0)" xlink:href="#ao"/><use transform="matrix(0.05,0,0,0.05,15.949999999999998,0)" xlink:href="#ag"/><use transform="matrix(0.05,0,0,0.05,25.950000000000003,0)" xlink:href="#ai"/><use transform="matrix(0.05,0,0,0.05,30.950000000000003,0)" xlink:href="#ae"/></g><path d="M140-251c81 0 123 46 123 126C263-46 219 4 140 4 59 4 17-45 17-125s42-126 123-126zm0 227c63 0 89-41 89-101s-29-99-89-99c-61 0-89 39-89 99S79-25 140-24" id="aG"/><path d="M179-190L93 31C79 59 56 82 12 73V49c39 6 53-20 64-50L1-190h34L92-34l54-156h33" id="aH"/><g id="N"><use transform="matrix(0.05,0,0,0.05,0,0)" xlink:href="#aG"/><use transform="matrix(0.05,0,0,0.05,14,0)" xlink:href="#ap"/><use transform="matrix(0.05,0,0,0.05,24,0)" xlink:href="#aq"/><use transform="matrix(0.05,0,0,0.05,27.950000000000003,0)" xlink:href="#aH"/></g><g id="O"><use transform="matrix(0.05,0,0,0.05,0,0)" xlink:href="#af"/><use transform="matrix(0.05,0,0,0.05,10,0)" xlink:href="#ag"/><use transform="matrix(0.05,0,0,0.05,20,0)" xlink:href="#ae"/><use transform="matrix(0.05,0,0,0.05,30,0)" xlink:href="#ad"/><use transform="matrix(0.05,0,0,0.05,35.95,0)" xlink:href="#av"/><use transform="matrix(0.05,0,0,0.05,39.900000000000006,0)" xlink:href="#ae"/><use transform="matrix(0.05,0,0,0.05,49.900000000000006,0)" xlink:href="#ah"/><use transform="matrix(0.05,0,0,0.05,58.900000000000006,0)" xlink:href="#az"/></g><g id="P"><use transform="matrix(0.05,0,0,0.05,0,0)" xlink:href="#ad"/><use transform="matrix(0.05,0,0,0.05,5.95,0)" xlink:href="#ae"/><use transform="matrix(0.05,0,0,0.05,15.949999999999998,0)" xlink:href="#ai"/><use transform="matrix(0.05,0,0,0.05,20.95,0)" xlink:href="#ag"/><use transform="matrix(0.05,0,0,0.05,30.950000000000003,0)" xlink:href="#ad"/><use transform="matrix(0.05,0,0,0.05,36.9,0)" xlink:href="#ap"/></g><g id="Q"><use transform="matrix(0.05,0,0,0.05,0,0)" xlink:href="#ad"/><use transform="matrix(0.05,0,0,0.05,5.95,0)" xlink:href="#ae"/><use transform="matrix(0.05,0,0,0.05,15.949999999999998,0)" xlink:href="#al"/><use transform="matrix(0.05,0,0,0.05,19.9,0)" xlink:href="#ae"/><use transform="matrix(0.05,0,0,0.05,29.899999999999995,0)" xlink:href="#am"/><use transform="matrix(0.05,0,0,0.05,38.9,0)" xlink:href="#ai"/></g><g id="R"><use transform="matrix(0.05,0,0,0.05,0,0)" xlink:href="#av"/><use transform="matrix(0.05,0,0,0.05,3.95,0)" xlink:href="#aF"/></g><g id="S"><use transform="matrix(0.05,0,0,0.05,0,0)" xlink:href="#ae"/><use transform="matrix(0.05,0,0,0.05,10,0)" xlink:href="#ad"/><use transform="matrix(0.05,0,0,0.05,15.949999999999998,0)" xlink:href="#ad"/><use transform="matrix(0.05,0,0,0.05,21.9,0)" xlink:href="#ao"/><use transform="matrix(0.05,0,0,0.05,31.899999999999995,0)" xlink:href="#ad"/></g><g id="T"><use transform="matrix(0.05,0,0,0.05,0,0)" xlink:href="#aF"/><use transform="matrix(0.05,0,0,0.05,5,0)" xlink:href="#ag"/><use transform="matrix(0.05,0,0,0.05,15,0)" xlink:href="#aq"/><use transform="matrix(0.05,0,0,0.05,18.95,0)" xlink:href="#aq"/></g><g id="U"><use transform="matrix(0.05,0,0,0.05,0,0)" xlink:href="#ao"/><use transform="matrix(0.05,0,0,0.05,10,0)" xlink:href="#as"/><use transform="matrix(0.05,0,0,0.05,20,0)" xlink:href="#al"/></g><g id="V"><use transform="matrix(0.05,0,0,0.05,0,0)" xlink:href="#ao"/><use transform="matrix(0.05,0,0,0.05,10,0)" xlink:href="#ap"/></g><g id="W"><use transform="matrix(0.05,0,0,0.05,0,0)" xlink:href="#ah"/><use transform="matrix(0.05,0,0,0.05,9,0)" xlink:href="#ag"/><use transform="matrix(0.05,0,0,0.05,19,0)" xlink:href="#am"/><use transform="matrix(0.05,0,0,0.05,28,0)" xlink:href="#am"/></g><g id="X"><use transform="matrix(0.05,0,0,0.05,0,0)" xlink:href="#au"/><use transform="matrix(0.05,0,0,0.05,14.950000000000001,0)" xlink:href="#ax"/><use transform="matrix(0.05,0,0,0.05,24.950000000000003,0)" xlink:href="#at"/><use transform="matrix(0.05,0,0,0.05,34.95,0)" xlink:href="#ah"/></g><g id="Y"><use transform="matrix(0.05,0,0,0.05,0,0)" xlink:href="#ad"/><use transform="matrix(0.05,0,0,0.05,5.95,0)" xlink:href="#ao"/><use transform="matrix(0.05,0,0,0.05,15.949999999999998,0)" xlink:href="#ag"/><use transform="matrix(0.05,0,0,0.05,25.950000000000003,0)" xlink:href="#ai"/><use transform="matrix(0.05,0,0,0.05,30.950000000000003,0)" xlink:href="#ae"/><use transform="matrix(0.05,0,0,0.05,40.95,0)" xlink:href="#ah"/></g><g id="Z"><use transform="matrix(0.05,0,0,0.05,0,0)" xlink:href="#ae"/><use transform="matrix(0.05,0,0,0.05,10,0)" xlink:href="#ap"/><use transform="matrix(0.05,0,0,0.05,20,0)" xlink:href="#ai"/><use transform="matrix(0.05,0,0,0.05,25,0)" xlink:href="#ad"/><use transform="matrix(0.05,0,0,0.05,30.950000000000003,0)" xlink:href="#aH"/></g><g id="aa"><use transform="matrix(0.05,0,0,0.05,0,0)" xlink:href="#at"/><use transform="matrix(0.05,0,0,0.05,10,0)" xlink:href="#ao"/><use transform="matrix(0.05,0,0,0.05,20,0)" xlink:href="#av"/><use transform="matrix(0.05,0,0,0.05,23.95,0)" xlink:href="#ap"/><use transform="matrix(0.05,0,0,0.05,33.95,0)" xlink:href="#ai"/></g><use transform="matrix(0.05,0,0,0.05,0,0)" xlink:href="#an" id="ab"/><g id="ac"><use transform="matrix(0.05,0,0,0.05,0,0)" xlink:href="#av"/><use transform="matrix(0.05,0,0,0.05,3.95,0)" xlink:href="#ap"/><use transform="matrix(0.05,0,0,0.05,13.949999999999998,0)" xlink:href="#av"/><use transform="matrix(0.05,0,0,0.05,17.9,0)" xlink:href="#ai"/><use transform="matrix(0.05,0,0,0.05,22.9,0)" xlink:href="#av"/><use transform="matrix(0.05,0,0,0.05,26.849999999999994,0)" xlink:href="#ax"/><use transform="matrix(0.05,0,0,0.05,36.849999999999994,0)" xlink:href="#aq"/><use transform="matrix(0.05,0,0,0.05,40.8,0)" xlink:href="#av"/><use transform="matrix(0.05,0,0,0.05,44.75,0)" xlink:href="#ah"/><use transform="matrix(0.05,0,0,0.05,53.75,0)" xlink:href="#ax"/><use transform="matrix(0.05,0,0,0.05,63.75,0)" xlink:href="#ai"/><use transform="matrix(0.05,0,0,0.05,68.75,0)" xlink:href="#av"/><use transform="matrix(0.05,0,0,0.05,72.7,0)" xlink:href="#ao"/><use transform="matrix(0.05,0,0,0.05,82.7,0)" xlink:href="#ap"/></g></defs></g></svg>